{"title":"Queer as Folk (UK) The Complete Series DVD RIP (1999&amp;ndash;2000)","uid":9573446,"size":3118784447,"categoryP":"video","categoryS":"tv_shows","magnet":"?xt=urn:btih:e41521a74af4febea342f3d55e51d940b932269a&amp;dn=Queer+as+Folk+%28UK%29+The+Complete+Series+DVD+RIP+%281999%26ndash%3B2000%29&amp;tr=udp%3A%2F%2Ftracker.openbittorrent.com%3A80&amp;tr=udp%3A%2F%2Fopen.demonii.com%3A1337&amp;tr=udp%3A%2F%2Ftracker.coppersurfer.tk%3A6969&amp;tr=udp%3A%2F%2Fexodus.desync.com%3A6969","seeders":6,"leechers":3,"uploader":"d7s","files":-1,"time":1391663680,"description":"Complete Seasons 1 And 2\n\n\n &lt;a href=&quot;\nhttp://en.wikipedia.org/wiki/Queer_as_Folk_%28UK_TV_series%29#Episodes&quot; rel=&quot;nofollow&quot; target=&quot;_NEW&quot;&gt;\nhttp://en.wikipedia.org/wiki/Queer_as_Folk_%28UK_TV_series%29#Episodes&lt;/a&gt;\n\n\n\nControversial Drama which chronicles the lives of Stuart and Vince, and also 15 year old Nathan who is in love with Stuart \n\n\n\nINCLUDING DIRECTORIES COMMENTARY FOR EVERY EPISODE\n\n\n\nFormat                                   : MPEG-4\nFormat profile                           : Base Media\nCodec ID                                 : isom\nFile size                                : 237 MiB\nDuration                                 : 31mn 56s\nOverall bit rate mode                    : Variable\nOverall bit rate                         : 1 036 Kbps\nWriting application                      : Lavf55.10.1\n\nVideo\nID                                       : 1\nFormat                                   : AVC\nFormat/Info                              : Advanced Video Codec\nFormat profile                           : &lt;a class=&quot;__cf_email__&quot; href=&quot;/cdn-cgi/l/email-protection&quot; data-cfemail=&quot;b3fbdad4dbf3ff879d82&quot;&gt;[email&amp;#160;protected]&lt;/a&gt;&lt;script cf-hash='f9e31' type=&quot;text/javascript&quot;&gt;\n/* &lt;![CDATA[ */!function(){try{var t=&quot;currentScript&quot;in document?document.currentScript:function(){for(var t=document.getElementsByTagName(&quot;script&quot;),e=t.length;e--;)if(t[e].getAttribute(&quot;cf-hash&quot;))return t[e]}();if(t&amp;&amp;t.previousSibling){var e,r,n,i,c=t.previousSibling,a=c.getAttribute(&quot;data-cfemail&quot;);if(a){for(e=&quot;&quot;,r=parseInt(a.substr(0,2),16),n=2;a.length-n;n+=2)i=parseInt(a.substr(n,2),16)^r,e+=String.fromCharCode(i);e=document.createTextNode(e),c.parentNode.replaceChild(e,c)}}}catch(u){}}();/* ]]&gt; */&lt;/script&gt;\nFormat settings, CABAC                   : Yes\nFormat settings, ReFrames                : 4 frames\nCodec ID                                 : avc1\nCodec ID/Info                            : Advanced Video Coding\nDuration                                 : 31mn 56s\nBit rate                                 : 835 Kbps\nWidth                                    : 702 pixels\nHeight                                   : 576 pixels\nDisplay aspect ratio                     : 16:9\nFrame rate mode                          : Constant\nFrame rate                               : 25.000 fps\nColor space                              : YUV\nChroma subsampling                       : 4:2:0\nBit depth                                : 8 bits\nScan type                                : Progressive\nBits/(Pixel*Frame)                       : 0.083\nStream size                              : 191 MiB (81%)\nWriting library                          : x264 core 140 r2377 1ca7bb9\nEncoding settings                        : cabac=1 / ref=3 / deblock=1:0:0 / \nColor primaries                          : BT.601 PAL\nTransfer characteristics                 : BT.709\nMatrix coefficients                      : BT.601\n\nAudio #1\nID                                       : 2\nFormat                                   : AAC\nFormat/Info                              : Advanced Audio Codec\nFormat profile                           : LC\nCodec ID                                 : 40\nDuration                                 : 31mn 56s\nBit rate mode                            : Variable\nBit rate                                 : 96.0 Kbps\nChannel(s)                               : 2 channels\nChannel positions                        : Front: L R\nSampling rate                            : 48.0 KHz\nCompression mode                         : Lossy\nStream size                              : 22.0 MiB (9%)\nLanguage                                 : English\n","torrent":{"xt":"urn:btih:e41521a74af4febea342f3d55e51d940b932269a","amp;dn":"Queer+as+Folk+%28UK%29+The+Complete+Series+DVD+RIP+%281999%26ndash%3B2000%29","amp;tr":["udp%3A%2F%2Ftracker.openbittorrent.com%3A80","udp%3A%2F%2Fopen.demonii.com%3A1337","udp%3A%2F%2Ftracker.coppersurfer.tk%3A6969","udp%3A%2F%2Fexodus.desync.com%3A6969"],"infoHash":"e41521a74af4febea342f3d55e51d940b932269a","infoHashBuffer":{"type":"Buffer","data":[228,21,33,167,74,244,254,190,163,66,243,213,94,81,217,64,185,50,38,154]},"announce":[],"urlList":[]}}